<svg width="60" height="60" viewBox="0 0 60 60" fill="none" xmlns="http://www.w3.org/2000/svg">
<rect x="1.5" y="1.5" width="57" height="57" rx="28.5" fill="#03A9F4"/>
<rect x="1.5" y="1.5" width="57" height="57" rx="28.5" stroke="white" stroke-width="3"/>
<path d="M26.583 34.4167L42.6247 18.375M26.583 34.4167L31.6872 44.625C31.7512 44.7646 31.8539 44.8829 31.9831 44.9659C32.1124 45.0488 32.2628 45.0929 32.4163 45.0929C32.5699 45.0929 32.7203 45.0488 32.8495 44.9659C32.9788 44.8829 33.0815 44.7646 33.1455 44.625L42.6247 18.375M26.583 34.4167L16.3747 29.3125C16.2351 29.2485 16.1167 29.1458 16.0338 29.0165C15.9508 28.8873 15.9067 28.7369 15.9067 28.5833C15.9067 28.4297 15.9508 28.2794 16.0338 28.1501C16.1167 28.0209 16.2351 27.9182 16.3747 27.8542L42.6247 18.375" stroke="white" stroke-width="2.91667" stroke-linecap="round" stroke-linejoin="round"/>
</svg>
